<?xml version="1.0" encoding="UTF-8"?>
<svg version="1.1" xmlns="http://www.w3.org/2000/svg" width="256" height="256">
<path d="M0 0 C1.1177758 -0.01029488 1.1177758 -0.01029488 2.25813293 -0.02079773 C4.71720522 -0.03907409 7.17564011 -0.03522764 9.63476562 -0.02954102 C11.34582731 -0.03410207 13.05688716 -0.03940741 14.76794434 -0.04542542 C18.35237068 -0.05435786 21.93657423 -0.0519315 25.52099609 -0.04199219 C30.11464659 -0.0304956 34.70752919 -0.05072344 39.3010788 -0.07990932 C42.83385095 -0.09825282 46.36643839 -0.09798271 49.89924622 -0.0922718 C51.59293191 -0.0921184 53.28662997 -0.09817876 54.98027039 -0.11056328 C57.34801479 -0.1254391 59.71433159 -0.11482335 62.08203125 -0.09765625 C62.78137283 -0.10732422 63.48071442 -0.11699219 64.20124817 -0.12695312 C67.22594297 -0.08102215 69.34177887 0.29548606 72.00720215 1.74790955 C74.48840877 6.04467716 73.8417665 10.55862193 73.54101562 15.40405273 C74.3703895 15.40036556 75.19976337 15.39667839 76.05426979 15.39287949 C96.23503141 15.30454101 116.4157597 15.23834921 136.59667397 15.19680405 C146.35602385 15.17617908 156.11524467 15.14805969 165.87451172 15.10229492 C174.380724 15.0624252 182.8868428 15.03661945 191.39314592 15.02769876 C195.89718024 15.02248424 200.40094716 15.0102296 204.90489578 14.98113251 C209.14514192 14.95396123 213.38501076 14.94561116 217.62533569 14.95162201 C219.18056667 14.95052253 220.7358104 14.94257864 222.29096603 14.92723083 C224.41755241 14.90727492 226.54272164 14.91213237 228.66934204 14.92303467 C229.85845499 14.9193475 231.04756794 14.91566032 232.27271461 14.91186142 C237.28763739 15.66708605 240.30801473 17.81347343 243.39178562 21.79155827 C244.71491334 24.79936682 244.92076639 26.92358632 244.92869568 30.20396423 C244.94355263 31.94299767 244.94355263 31.94299767 244.95870972 33.71716309 C244.95420807 34.98016235 244.94970642 36.24316162 244.94506836 37.54443359 C244.9507739 38.89503036 244.95773887 40.2456223 244.96586609 41.59620667 C244.9837928 45.25742338 244.98263008 48.91840037 244.9769237 52.57964778 C244.97383105 55.6387897 244.97992517 58.69788563 244.98596245 61.75702101 C245.00000453 68.97526003 244.99844914 76.1933807 244.98706055 83.41162109 C244.97558 90.85246172 244.98965441 98.29294189 245.01645702 105.73373502 C245.03862538 112.12795768 245.04524885 118.52206728 245.03938061 124.91632563 C245.03601246 128.73279202 245.03841638 132.54902736 245.05563164 136.36546135 C245.07111698 139.95498376 245.06712831 143.54397289 245.04832649 147.13347435 C245.04289301 149.07412931 245.05714275 151.01480829 245.07202148 152.95541382 C244.98012856 163.81510559 244.98012856 163.81510559 240.54101562 168.40405273 C236.47158999 171.75703777 232.61147969 171.81863609 227.5378418 171.74462891 C226.74707245 171.74506699 225.9563031 171.74550507 225.14157104 171.74595642 C222.53878731 171.74387342 219.936655 171.72056588 217.33398438 171.69702148 C215.52509411 171.69142378 213.7161993 171.68715451 211.90730286 171.68415833 C207.15446336 171.67272327 202.40190042 171.64326761 197.64916992 171.61004639 C192.79609925 171.57931663 187.94298374 171.56564678 183.08984375 171.55053711 C173.57342687 171.51839657 164.05728755 171.46563957 154.54101562 171.40405273 C154.54101562 182.62405273 154.54101562 193.84405273 154.54101562 205.40405273 C158.50101563 205.40405273 162.46101562 205.40405273 166.54101562 205.40405273 C170.54101562 207.40405273 170.54101562 207.40405273 172.54101562 210.40405273 C172.54101562 214.36405273 172.54101562 218.32405273 172.54101562 222.40405273 C145.81101563 222.40405273 119.08101562 222.40405273 91.54101562 222.40405273 C91.54101562 210.40405273 91.54101562 210.40405273 95.54101562 206.40405273 C99.72564358 204.31173876 104.86245934 205.40405273 109.54101562 205.40405273 C109.54101562 194.18405273 109.54101562 182.96405273 109.54101562 171.40405273 C97.66101563 171.40405273 85.78101562 171.40405273 73.54101562 171.40405273 C73.58742188 174.75045898 73.63382812 178.09686523 73.68164062 181.54467773 C73.71283306 184.78473392 73.73712272 188.02477339 73.76074219 191.26489258 C73.78086119 193.51724735 73.8081597 195.76954987 73.84277344 198.02172852 C73.89127772 201.25867604 73.91398167 204.4949332 73.93164062 207.73217773 C73.95228577 208.73960022 73.97293091 209.74702271 73.99420166 210.78497314 C73.99465485 212.19598297 73.99465485 212.19598297 73.99511719 213.63549805 C74.00399963 214.46156555 74.01288208 215.28763306 74.02203369 216.13873291 C73.33259381 219.38560019 72.23831953 220.48622246 69.54101562 222.40405273 C66.91363714 222.79396446 64.70607096 222.94203746 62.08203125 222.90576172 C60.96425545 222.9138662 60.96425545 222.9138662 59.82389832 222.9221344 C57.36461472 222.93462538 54.90650103 222.91812932 52.44726562 222.90014648 C50.73620543 222.90030147 49.02514488 222.90179029 47.31408691 222.90455627 C43.72957829 222.90594043 40.14546973 222.89337977 36.56103516 222.87060547 C31.96746908 222.84222061 27.37456771 222.84495785 22.78095245 222.85769558 C19.24817228 222.86465219 15.71554561 222.85686372 12.18278503 222.84443855 C10.4891163 222.83992386 8.79543109 222.83958741 7.10176086 222.84350395 C4.73416392 222.84641605 2.36748137 222.82991031 0 222.80810547 C-0.69934158 222.81260712 -1.39868317 222.81710876 -2.11921692 222.82174683 C-4.87744118 222.77956204 -7.11430478 222.56069748 -9.63832092 221.41362095 C-12.4717927 218.28615947 -12.01005687 214.87429372 -11.96691895 210.86328125 C-11.97315891 209.98078736 -11.97939887 209.09829348 -11.98582792 208.18905735 C-12.00183391 205.22008933 -11.989124 202.25193368 -11.9765625 199.28295898 C-11.98198024 197.15932738 -11.98910093 195.03569954 -11.99780273 192.91207886 C-12.01608037 187.13528655 -12.00895017 181.35877912 -11.99628639 175.58198166 C-11.98618173 169.54553186 -11.99554501 163.50910697 -12.00183105 157.47265625 C-12.00911485 147.33418382 -11.99950051 137.19582782 -11.98046875 127.05737305 C-11.95869869 115.32446621 -11.96574954 103.59183736 -11.98777437 91.85893726 C-12.00590748 81.79774242 -12.00849691 71.73663143 -11.9980197 61.67542553 C-11.99177328 55.66085946 -11.99098066 49.6464242 -12.00416565 43.63186646 C-12.0156931 37.97818061 -12.00775517 32.3248543 -11.98458862 26.67120743 C-11.97928491 24.59227217 -11.98084352 22.51330681 -11.98963928 20.43438339 C-12.00051279 17.60411736 -11.98693074 14.77501535 -11.96691895 11.94482422 C-11.97584183 11.11516427 -11.98476472 10.28550432 -11.993958 9.43070316 C-11.91784677 3.91052486 -11.91784677 3.91052486 -9.63832092 1.39448452 C-6.46347584 -0.04837087 -3.4212484 -0.02202251 0 0 Z " fill="#545E6B" transform="translate(11.458984375,16.595947265625)"/>
<path d="M0 0 C21.14889309 -0.09344161 42.29775213 -0.16397839 63.44680977 -0.20724869 C73.26669338 -0.22787387 83.08644872 -0.25599365 92.90625 -0.30175781 C101.46519998 -0.34162689 110.02405708 -0.36743314 118.58309734 -0.37635398 C123.11507661 -0.38156861 127.64679013 -0.39382394 132.17868423 -0.42292023 C136.44519459 -0.45009047 140.71132997 -0.45844177 144.97791862 -0.45243073 C146.54282482 -0.45353025 148.10774368 -0.46147474 149.672575 -0.4768219 C151.81229579 -0.49677616 153.95060796 -0.49192092 156.09036255 -0.48101807 C157.28684984 -0.48470524 158.48333714 -0.48839241 159.71608162 -0.49219131 C164.54362956 0.23135808 167.6765539 2.48388429 170.85371399 6.12358093 C172.56478489 10.41723619 172.39278995 14.44216154 172.34057617 19.02270508 C172.34093778 20.04426288 172.34129938 21.06582067 172.34167194 22.11833477 C172.33943612 25.41893424 172.31660529 28.71902292 172.29296875 32.01953125 C172.28855688 34.05968989 172.28549697 36.09985193 172.28381348 38.14001465 C172.26809661 45.69756161 172.22621289 53.25503584 172.1875 60.8125 C172.125625 77.704375 172.06375 94.59625 172 112 C115.57 112 59.14 112 1 112 C-0.14882047 93.61887243 -0.14882047 93.61887243 -0.11352539 85.37109375 C-0.11367142 84.43241455 -0.11381744 83.49373535 -0.1139679 82.52661133 C-0.1132844 79.49688202 -0.1055674 76.46721824 -0.09765625 73.4375 C-0.09578648 71.30802443 -0.09436523 69.17854842 -0.09336853 67.04907227 C-0.0895873 61.49917368 -0.07979561 55.94930212 -0.06866455 50.39941406 C-0.05835489 44.71419642 -0.05385063 39.02897433 -0.04882812 33.34375 C-0.0381685 22.22915493 -0.02114624 11.11457973 0 0 Z " fill="#2A84E9" transform="translate(84,32)"/>
<path d="M0 0 C14.85 0 29.7 0 45 0 C45 11.22 45 22.44 45 34 C48.96 34 52.92 34 57 34 C61 36 61 36 63 39 C63 42.96 63 46.92 63 51 C36.27 51 9.54 51 -18 51 C-18 39 -18 39 -14 35 C-9.81537205 32.90768602 -4.67855628 34 0 34 C0 22.78 0 11.56 0 0 Z " fill="#353B43" transform="translate(121,188)"/>
<path d="M0 0 C5.28 0 10.56 0 16 0 C16 36.96 16 73.92 16 112 C11.05 112 6.1 112 1 112 C0.03490575 99.12317149 -0.13136412 86.3465377 -0.09765625 73.4375 C-0.09578648 71.30802443 -0.09436523 69.17854842 -0.09336853 67.04907227 C-0.0895873 61.49917368 -0.07979561 55.94930212 -0.06866455 50.39941406 C-0.05835489 44.71419642 -0.05385063 39.02897433 -0.04882812 33.34375 C-0.0381685 22.22915493 -0.02114624 11.11457973 0 0 Z " fill="#2775C4" transform="translate(84,32)"/>
<path d="M0 0 C1.65 1.65 3.3 3.3 5 5 C5.81702393 5.73879395 6.63404785 6.47758789 7.47583008 7.23876953 C16.25623866 16.15309165 17.91933706 26.49262876 20.08178711 38.51074219 C20.69120105 41.89555642 21.35147035 45.26733292 22.02148438 48.640625 C22.43784151 50.798913 22.8513562 52.95775171 23.26171875 55.1171875 C23.45424728 56.12039032 23.64677582 57.12359314 23.84513855 58.15719604 C25.4557358 67.18609851 25.4557358 67.18609851 24 72 C22.22211663 74.24832978 20.51435163 76.18113329 18.5 78.1875 C17.40487612 79.32033589 16.31246131 80.4557964 15.22265625 81.59375 C14.67883301 82.15964844 14.13500977 82.72554688 13.57470703 83.30859375 C10.4578733 86.65641144 7.6658529 90.26112192 4.83984375 93.85546875 C3 96 3 96 0 98 C0 65.66 0 33.32 0 0 Z " fill="#2E343A" transform="translate(0,129)"/>
<path d="M0 0 C0.33 0 0.66 0 1 0 C1 32.01 1 64.02 1 97 C-3.60017637 93.05699168 -6.86955557 90.24017011 -10.4375 85.6875 C-13.90546908 81.2899722 -17.55265395 77.26749645 -21.56640625 73.36328125 C-26.15953325 65.79150514 -21.30479957 52.07053629 -19.7590332 43.93945312 C-19.38059576 41.910343 -19.01900739 39.87801183 -18.67504883 37.84277344 C-16.28494839 23.72455903 -12.89787653 14.41730142 -3 4 C-2.41500732 3.21995605 -1.83001465 2.43991211 -1.22729492 1.63623047 C-0.61978394 0.82629639 -0.61978394 0.82629639 0 0 Z " fill="#2E343A" transform="translate(83,129)"/>
<path d="M0 0 C0.33 0 0.66 0 1 0 C1 8.58 1 17.16 1 26 C4.99609375 25.90460938 8.9921875 25.80921875 13.109375 25.7109375 C16.9748869 25.62576126 20.84045875 25.54415224 24.70605469 25.46289062 C27.39499468 25.40561864 30.0837416 25.34318443 32.77246094 25.27636719 C36.63462101 25.1823072 40.4968638 25.10156044 44.359375 25.0234375 C45.5636615 24.99124115 46.767948 24.9590448 48.00872803 24.9258728 C49.69001801 24.89561508 49.69001801 24.89561508 51.40527344 24.86474609 C52.88420074 24.83143692 52.88420074 24.83143692 54.39300537 24.79745483 C57.15996163 25.01242789 58.69862895 25.47159434 61 27 C63 30 63 30 63 42 C36.27 42 9.54 42 -18 42 C-18 30 -18 30 -14 26 C-9.81537205 23.90768602 -4.67855628 25 0 25 C0 16.75 0 8.5 0 0 Z " fill="#353C43" transform="translate(121,197)"/>
<path d="M0 0 C1.11785889 -0.00315216 2.23571777 -0.00630432 3.38745117 -0.009552 C5.21240112 -0.00651566 5.21240112 -0.00651566 7.07421875 -0.00341797 C8.31341064 -0.00437469 9.55260254 -0.00533142 10.8293457 -0.00631714 C13.45560156 -0.00699921 16.08176508 -0.00564085 18.70800781 -0.00097656 C22.08100589 0.00472073 25.4539244 0.00144151 28.82691956 -0.00454903 C32.03435552 -0.00902317 35.24178175 -0.00589429 38.44921875 -0.00341797 C39.66585205 -0.0054422 40.88248535 -0.00746643 42.13598633 -0.009552 C43.81277466 -0.00482376 43.81277466 -0.00482376 45.5234375 0 C46.51303467 0.00079559 47.50263184 0.00159119 48.5222168 0.00241089 C50.76171875 0.12939453 50.76171875 0.12939453 51.76171875 1.12939453 C51.86023046 2.96055336 51.89144504 4.79559386 51.88671875 6.62939453 C51.89058594 8.12986328 51.89058594 8.12986328 51.89453125 9.66064453 C51.76171875 12.12939453 51.76171875 12.12939453 50.76171875 13.12939453 C49.0178934 13.22827245 47.27006332 13.25738485 45.5234375 13.25878906 C44.40557861 13.26194122 43.28771973 13.26509338 42.13598633 13.26834106 C40.91935303 13.26631683 39.70271973 13.2642926 38.44921875 13.26220703 C37.21002686 13.26316376 35.97083496 13.26412048 34.6940918 13.2651062 C32.06783594 13.26578827 29.44167242 13.26442991 26.81542969 13.25976562 C23.44243161 13.25406834 20.0695131 13.25734755 16.69651794 13.26333809 C13.48908198 13.26781223 10.28165575 13.26468335 7.07421875 13.26220703 C5.85758545 13.26423126 4.64095215 13.26625549 3.38745117 13.26834106 C1.71066284 13.26361282 1.71066284 13.26361282 0 13.25878906 C-0.98959717 13.25799347 -1.97919434 13.25719788 -2.9987793 13.25637817 C-5.23828125 13.12939453 -5.23828125 13.12939453 -6.23828125 12.12939453 C-6.33679296 10.2982357 -6.36800754 8.4631952 -6.36328125 6.62939453 C-6.36585937 5.62908203 -6.3684375 4.62876953 -6.37109375 3.59814453 C-6.13002903 -0.88282312 -3.96762361 0.0031898 0 0 Z " fill="#6F7C8B" transform="translate(19.23828125,72.87060546875)"/>
<path d="M0 0 C1.11785889 -0.00315216 2.23571777 -0.00630432 3.38745117 -0.009552 C5.21240112 -0.00651566 5.21240112 -0.00651566 7.07421875 -0.00341797 C8.31341064 -0.00437469 9.55260254 -0.00533142 10.8293457 -0.00631714 C13.45560156 -0.00699921 16.08176508 -0.00564085 18.70800781 -0.00097656 C22.08100589 0.00472073 25.4539244 0.00144151 28.82691956 -0.00454903 C32.03435552 -0.00902317 35.24178175 -0.00589429 38.44921875 -0.00341797 C39.66585205 -0.0054422 40.88248535 -0.00746643 42.13598633 -0.009552 C43.81277466 -0.00482376 43.81277466 -0.00482376 45.5234375 0 C46.51303467 0.00079559 47.50263184 0.00159119 48.5222168 0.00241089 C50.76171875 0.12939453 50.76171875 0.12939453 51.76171875 1.12939453 C51.86023046 2.96055336 51.89144504 4.79559386 51.88671875 6.62939453 C51.89058594 8.12986328 51.89058594 8.12986328 51.89453125 9.66064453 C51.76171875 12.12939453 51.76171875 12.12939453 50.76171875 13.12939453 C49.0178934 13.22827245 47.27006332 13.25738485 45.5234375 13.25878906 C44.40557861 13.26194122 43.28771973 13.26509338 42.13598633 13.26834106 C40.91935303 13.26631683 39.70271973 13.2642926 38.44921875 13.26220703 C37.21002686 13.26316376 35.97083496 13.26412048 34.6940918 13.2651062 C32.06783594 13.26578827 29.44167242 13.26442991 26.81542969 13.25976562 C23.44243161 13.25406834 20.0695131 13.25734755 16.69651794 13.26333809 C13.48908198 13.26781223 10.28165575 13.26468335 7.07421875 13.26220703 C5.85758545 13.26423126 4.64095215 13.26625549 3.38745117 13.26834106 C1.71066284 13.26361282 1.71066284 13.26361282 0 13.25878906 C-0.98959717 13.25799347 -1.97919434 13.25719788 -2.9987793 13.25637817 C-5.23828125 13.12939453 -5.23828125 13.12939453 -6.23828125 12.12939453 C-6.33679296 10.2982357 -6.36800754 8.4631952 -6.36328125 6.62939453 C-6.36585937 5.62908203 -6.3684375 4.62876953 -6.37109375 3.59814453 C-6.13002903 -0.88282312 -3.96762361 0.0031898 0 0 Z " fill="#6F7C8B" transform="translate(19.23828125,44.87060546875)"/>
<path d="M0 0 C4.95 0.33 9.9 0.66 15 1 C15 15.19 15 29.38 15 44 C10.38 44 5.76 44 1 44 C1 56.87 1 69.74 1 83 C0.34 82.67 -0.32 82.34 -1 82 C-0.505 41.41 -0.505 41.41 0 0 Z " fill="#424A55" transform="translate(84,144)"/>
<path d="M0 0 C19.14 0 38.28 0 58 0 C56.35278054 3.29443891 54.98967221 5.40924109 52.625 8.125 C52.03976563 8.80820312 51.45453125 9.49140625 50.8515625 10.1953125 C46.84466368 14.10077084 42.97996664 14.32874346 37.56640625 14.37109375 C36.85145493 14.38012222 36.1365036 14.3891507 35.39988708 14.39845276 C33.89122691 14.41292676 32.38250436 14.42183491 30.8737793 14.42553711 C28.57297639 14.43744578 26.2748476 14.48666016 23.97460938 14.53710938 C22.50522136 14.5465734 21.03581695 14.55380854 19.56640625 14.55859375 C18.88292618 14.57812607 18.19944611 14.59765839 17.49525452 14.61778259 C13.64697679 14.58165513 12.13651861 14.11496366 9.15332031 11.6027832 C8.08742676 10.31440552 8.08742676 10.31440552 7 9 C6.33355469 8.27296875 5.66710937 7.5459375 4.98046875 6.796875 C4.38878906 6.12140625 3.79710937 5.4459375 3.1875 4.75 C2.58292969 4.06421875 1.97835938 3.3784375 1.35546875 2.671875 C0 1 0 1 0 0 Z " fill="#2F353C" transform="translate(13,17)"/>
<path d="M0 0 C14.85 0 29.7 0 45 0 C45 2.97 45 5.94 45 9 C30.15 9 15.3 9 0 9 C0 6.03 0 3.06 0 0 Z " fill="#292E33" transform="translate(121,188)"/>
<path d="M0 0 C2.8100346 1.79363911 4.50940468 3.01880935 6 6 C6.57884232 13.06187625 6.57884232 13.06187625 4.1875 16.9375 C1.35796607 19.60534627 -0.5331709 19.9481301 -4.375 20.375 C-8 20 -8 20 -10.875 18.0625 C-13.61723492 14.11045555 -14.4693825 10.79813217 -14 6 C-10.48028041 0.17425724 -6.63382773 -0.95313617 0 0 Z " fill="#FB7A07" transform="translate(45,131)"/>
<path d="M0 0 C0.04241723 2.33294775 0.04092937 4.66702567 0 7 C-1 8 -1 8 -2.75270081 8.12025452 C-3.51437057 8.11803391 -4.27604034 8.11581329 -5.06079102 8.11352539 C-5.92160782 8.11344986 -6.78242462 8.11337433 -7.66932678 8.11329651 C-8.60473801 8.10813522 -9.54014923 8.10297394 -10.50390625 8.09765625 C-11.45692123 8.0962413 -12.40993622 8.09482635 -13.39183044 8.09336853 C-16.44875165 8.08775152 -19.50560077 8.07519616 -22.5625 8.0625 C-24.62955624 8.05748719 -26.69661362 8.05292391 -28.76367188 8.04882812 C-33.84247588 8.03777656 -38.9212257 8.02050055 -44 8 C-44 5.69 -44 3.38 -44 1 C-37.8944533 0.8574374 -31.78890312 0.71502487 -25.68334961 0.57275391 C-23.60457259 0.52429302 -21.52579655 0.47579048 -19.44702148 0.42724609 C-16.46598559 0.35763887 -13.48494629 0.28817944 -10.50390625 0.21875 C-9.10078941 0.18593933 -9.10078941 0.18593933 -7.66932678 0.15246582 C-6.80850998 0.13244507 -5.94769318 0.11242432 -5.06079102 0.09179688 C-3.91828636 0.06514954 -3.91828636 0.06514954 -2.75270081 0.03796387 C-1.8352618 0.01809195 -0.91765419 0 0 0 Z " fill="#292F34" transform="translate(166,215)"/>
<path d="M0 0 C2.875 1.625 2.875 1.625 5 4 C5.72567326 7.78962702 5.27777899 9.48888666 3.4375 12.875 C1 15 1 15 -2.5 15.625 C-6 15 -6 15 -8.4375 12.875 C-10.26836859 9.50620179 -10.64250722 7.77472994 -10 4 C-7.20900702 -0.07914358 -4.82277608 -0.78739201 0 0 Z " fill="#F9E430" transform="translate(146,157)"/>
<path d="M0 0 C1.0725 -0.01417969 2.145 -0.02835938 3.25 -0.04296875 C6 0.1875 6 0.1875 8 2.1875 C7.44444444 6.74305556 7.44444444 6.74305556 6 8.1875 C3.85692104 8.31287741 1.70921114 8.36324364 -0.4375 8.375 C-1.61183594 8.38917969 -2.78617188 8.40335938 -3.99609375 8.41796875 C-7 8.1875 -7 8.1875 -9 6.1875 C-8.75 3.625 -8.75 3.625 -8 1.1875 C-5.27457733 -0.17521133 -3.03912726 0.01826399 0 0 Z " fill="#91A6B7" transform="translate(29,218.8125)"/>
<path d="M0 0 C1.0725 0.00515625 2.145 0.0103125 3.25 0.015625 C4.85875 0.00789062 4.85875 0.00789062 6.5 0 C9.25 0.265625 9.25 0.265625 11.25 2.265625 C10.69444444 6.82118056 10.69444444 6.82118056 9.25 8.265625 C7.10692104 8.39100241 4.95921114 8.44136864 2.8125 8.453125 C1.63816406 8.46730469 0.46382812 8.48148438 -0.74609375 8.49609375 C-3.75 8.265625 -3.75 8.265625 -5.75 6.265625 C-5.25734727 2.32440317 -4.15383204 0.40122241 0 0 Z " fill="#92A6B7" transform="translate(49.75,218.734375)"/>
<path d="M0 0 C2.5 0.125 2.5 0.125 3.5 1.125 C3.625 3.625 3.625 3.625 3.5 6.125 C2.5 7.125 2.5 7.125 0 7.25 C-2.5 7.125 -2.5 7.125 -3.5 6.125 C-3.625 3.625 -3.625 3.625 -3.5 1.125 C-2.5 0.125 -2.5 0.125 0 0 Z " fill="#49B76D" transform="translate(236.5,161.875)"/>
<path d="M0 0 C2.5 0.125 2.5 0.125 3.5 1.125 C3.625 3.625 3.625 3.625 3.5 6.125 C2.5 7.125 2.5 7.125 0 7.25 C-2.5 7.125 -2.5 7.125 -3.5 6.125 C-3.625 3.625 -3.625 3.625 -3.5 1.125 C-2.5 0.125 -2.5 0.125 0 0 Z " fill="#49B76D" transform="translate(222.5,161.875)"/>
<path d="M0 0 C2.5 0.125 2.5 0.125 3.5 1.125 C3.625 3.625 3.625 3.625 3.5 6.125 C2.5 7.125 2.5 7.125 0 7.25 C-2.5 7.125 -2.5 7.125 -3.5 6.125 C-3.625 3.625 -3.625 3.625 -3.5 1.125 C-2.5 0.125 -2.5 0.125 0 0 Z " fill="#49B76D" transform="translate(208.5,161.875)"/>
</svg>
