<?xml version="1.0" encoding="UTF-8"?>
<svg version="1.1" xmlns="http://www.w3.org/2000/svg" width="250" height="167">
<path d="M0 0 C1.70265015 0.00918457 1.70265015 0.00918457 3.43969727 0.01855469 C18.4272064 0.2926843 31.26393458 3.69214486 45.5 8.4375 C45.5 54.9675 45.5 101.4975 45.5 149.4375 C37.91 147.4575 30.32 145.4775 22.5 143.4375 C0.80358862 140.33801266 -21.08672124 142.41747979 -42.5 146.4375 C-43.28814087 146.58503723 -44.07628174 146.73257446 -44.88830566 146.88458252 C-52.99134946 148.40484723 -61.09226612 149.93595541 -69.1809082 151.53125 C-102.23055304 158.02656725 -102.23055304 158.02656725 -118.8125 157.9375 C-120.03090576 157.93468018 -121.24931152 157.93186035 -122.50463867 157.92895508 C-137.22258067 157.67088022 -150.76675158 154.58746816 -164.5 149.4375 C-164.5 102.9075 -164.5 56.3775 -164.5 8.4375 C-153.61 11.4075 -153.61 11.4075 -142.5 14.4375 C-120.24886462 17.61623363 -97.46318242 15.58884325 -75.5 11.4375 C-74.71399414 11.28996277 -73.92798828 11.14242554 -73.11816406 10.99041748 C-65.01313152 9.46839752 -56.90947877 7.93952257 -48.81860352 6.34375 C-15.77169558 -0.15126384 -15.77169558 -0.15126384 0 0 Z " fill="#C4362B" transform="translate(184.5,4.5625)"/>
<path d="M0 0 C1.70265015 0.00918457 1.70265015 0.00918457 3.43969727 0.01855469 C18.4272064 0.2926843 31.26393458 3.69214486 45.5 8.4375 C45.5 23.9475 45.5 39.4575 45.5 55.4375 C36.5 53.4375 36.5 53.4375 32.33398438 52.38476562 C21.44702283 49.66446033 11.19762429 48.78555356 0 48.9375 C-1.23972061 48.94680542 -1.23972061 48.94680542 -2.50448608 48.95629883 C-17.15371417 49.08417679 -31.12379557 50.56703709 -45.5 53.4375 C-47.12072446 53.75269146 -48.74167168 54.06673879 -50.36279297 54.37988281 C-61.19438067 56.47133328 -61.19438067 56.47133328 -72.01489258 58.61914062 C-87.60385645 61.75163224 -102.64628487 63.8739836 -118.5625 63.875 C-119.37171906 63.87706451 -120.18093811 63.87912903 -121.01467896 63.8812561 C-136.42744058 63.87421562 -150.55225542 62.41137229 -164.5 55.4375 C-164.5 39.9275 -164.5 24.4175 -164.5 8.4375 C-153.61 11.4075 -153.61 11.4075 -142.5 14.4375 C-120.24886462 17.61623363 -97.46318242 15.58884325 -75.5 11.4375 C-74.71399414 11.28996277 -73.92798828 11.14242554 -73.11816406 10.99041748 C-65.01313152 9.46839752 -56.90947877 7.93952257 -48.81860352 6.34375 C-15.77169558 -0.15126384 -15.77169558 -0.15126384 0 0 Z " fill="#E8E7E8" transform="translate(184.5,4.5625)"/>
<path d="M0 0 C2.42218494 -0.00437261 4.84253883 -0.04085974 7.2644043 -0.07861328 C21.95180056 -0.18458698 34.67796156 2.7226506 48.62182617 7.37060547 C48.62182617 22.55060547 48.62182617 37.73060547 48.62182617 53.37060547 C36.39960395 51.14838325 36.39960395 51.14838325 30.30151367 49.05419922 C2.16287689 41.87597555 -29.60856532 49.32158857 -57.35083008 54.67138672 C-58.39366653 54.87219345 -59.43650299 55.07300018 -60.51094055 55.27989197 C-65.69826759 56.28093408 -70.88248688 57.29451046 -76.06201172 58.33520508 C-86.19637143 60.35113277 -96.02736957 62.04572366 -106.37817383 62.37060547 C-107.62099121 62.42716309 -107.62099121 62.42716309 -108.88891602 62.48486328 C-118.16982508 62.84749219 -127.24392373 62.34881979 -136.44067383 61.05810547 C-137.2844458 60.94047852 -138.12821777 60.82285156 -138.99755859 60.70166016 C-146.80347332 59.49897563 -154.05115376 57.3014135 -161.37817383 54.37060547 C-161.37817383 38.86060547 -161.37817383 23.35060547 -161.37817383 7.37060547 C-158.07817383 8.36060547 -154.77817383 9.35060547 -151.37817383 10.37060547 C-139.69118529 13.66481626 -128.82356267 15.07396755 -116.69067383 14.93310547 C-115.89347931 14.92884552 -115.09628479 14.92458557 -114.27493286 14.92019653 C-98.97057143 14.80774394 -84.42841354 12.86334264 -69.42346191 9.7857666 C-64.82954325 8.85327377 -60.22516296 7.97309826 -55.62312317 7.08174133 C-51.73602421 6.32782483 -47.8507963 5.56688572 -43.96972656 4.7824707 C-29.30700832 1.83335563 -14.96989678 -0.00300691 0 0 Z " fill="#13429D" transform="translate(181.378173828125,52.62939453125)"/>
</svg>
