<?xml version="1.0" encoding="utf-8"?>
<svg xmlns="http://www.w3.org/2000/svg" viewBox="-11.9046 1.6857 512.6234 513.77" width="512.623px" height="513.77px">
  <path d="M 290.411 6.15 C 291.93 6.45 291.93 6.45 293.48 6.75 C 341.724 16.4 385.948 38.99 421.411 73.15 C 422.076 73.79 422.741 74.42 423.425 75.08 C 449.013 99.75 463.056 124.76 465.482 127.4 C 467.686 130.9 469.574 134.45 471.411 138.15 C 471.798 138.9 472.184 139.64 472.583 140.41 C 489.431 173.09 500.425 210.2 500.614 247.16 C 500.621 248.08 500.628 249.01 500.636 249.96 C 500.862 288.188 500.862 288.188 497.411 305.148 C 497.218 306.146 497.024 307.144 496.825 308.173 C 488.706 349.26 471.336 386.353 445.411 419.148 C 444.599 420.186 443.787 421.224 442.95 422.293 C 430.282 437.858 415.729 452.437 399.411 464.148 C 398.089 465.126 396.768 466.104 395.446 467.082 C 360.341 492.765 319.527 508.614 276.411 514.148 C 275.744 514.236 275.077 514.323 274.389 514.413 C 268.673 515.109 263.034 515.323 257.278 515.351 C 256.332 515.358 255.386 515.366 254.411 515.373 C 215.266 515.599 215.266 515.599 198.411 512.148 C 196.916 511.858 196.916 511.858 195.391 511.562 C 154.302 503.444 117.208 486.074 84.411 460.148 C 83.374 459.336 82.336 458.524 81.267 457.687 C 65.7 445.018 51.133 430.46 39.411 414.148 C 38.547 412.978 37.683 411.809 36.817 410.64 C 21.674 390.014 9.592 367.405 1.411 343.148 C 0.998 341.926 0.998 341.926 0.5770000000000001 340.679 C -2.661 330.908 -5.194 321.026 -7.339 310.961 C -7.538 310.036 -7.736 309.111 -7.941 308.159 C -11.234 291.952 -11.964 276.018 -11.901 259.523 C -11.899000000000001 258.505 -11.897 257.487 -11.895 256.438 C -11.845 241.81 -11.531 227.52 -8.589 213.15 C -8.299 211.65 -8.299 211.65 -8.003 210.13 C 1.428 162.4 23.397 118.1 57.411 83.15 C 58.104 82.43 58.796 81.71 59.51 80.97 C 69.249 70.9 78.998 61.3 90.411 53.15 C 91.03 52.7 91.649 52.25 92.287 51.79 C 124.122 28.9 159.801 13.25 198.411 6.15 C 199.212 5.99 200.013 5.83 200.837 5.66 C 228.904 0.17 262.413 0.4 290.411 6.15" fill="#020202" style="stroke-width: 1;"/>
  <path d="M 162.349 192.02 C 164.31 192.02 166.272 192.02 168.234 192.01 C 173.524 192.01 178.814 192.01 184.105 192.01 C 189.685 192.02 195.265 192.01 200.845 192.01 C 210.23 192.01 219.614 192.01 228.998 192.02 C 239.765 192.02 250.532 192.02 261.299 192.02 C 270.606 192.01 279.914 192.01 289.222 192.01 C 294.752 192.02 300.282 192.02 305.812 192.01 C 354.031 191.99 354.031 191.99 377.411 193.15 C 378.721 193.21 380.031 193.28 381.381 193.34 C 382.722 193.42 384.062 193.49 385.403 193.57 C 386.608 193.64 387.813 193.7 389.055 193.77 C 395.872 194.54 402.639 197.1 407.411 202.15 C 411.934 208.47 413.425 214.55 414.411 222.15 C 414.578 223.42 414.745 224.7 414.917 226.01 C 416.295 237.1 416.775 248.04 416.724 259.211 C 416.722 260.053 416.719 260.895 416.717 261.763 C 416.54 305.103 416.54 305.103 407.411 316.148 C 400.402 322.467 392.893 324.402 383.684 324.739 C 382.433 324.794 382.433 324.794 381.158 324.851 C 378.576 324.961 375.994 325.057 373.411 325.148 C 372.259 325.19 372.259 325.19 371.084 325.233 C 365.739 325.423 360.394 325.567 355.047 325.695 C 354.203 325.716 353.359 325.737 352.49 325.759 C 333.075 326.23 313.661 326.329 294.241 326.378 C 288.062 326.394 281.884 326.418 275.705 326.443 C 258.175 326.513 240.645 326.574 223.114 326.625 C 213.349 326.653 203.585 326.689 193.82 326.732 C 187.675 326.758 181.531 326.776 175.386 326.788 C 171.596 326.797 167.806 326.814 164.016 326.834 C 162.255 326.841 160.495 326.846 158.735 326.846 C 156.343 326.847 153.95 326.86 151.558 326.877 C 150.504 326.873 150.504 326.873 149.43 326.869 C 145.478 326.813 148.839 325.335 145.348 338.635 C 114.155 339.254 150.864 340.72 155.127 340.694 C 156.445 340.71 156.445 340.71 157.789 340.725 C 160.689 340.755 163.589 340.756 166.489 340.758 C 168.501 340.773 170.514 340.789 172.526 340.808 C 177.819 340.851 183.113 340.871 188.406 340.886 C 193.809 340.906 199.212 340.948 204.614 340.988 C 215.213 341.063 225.812 341.114 236.411 341.148 C 236.411 346.428 236.411 351.708 236.411 357.148 C 234.827 357.258 233.243 357.367 231.61 357.48 C 193.224 360.252 151.653 368.268 119.151 390.206 C 117.411 391.148 117.411 391.148 114.411 391.148 C 98.411 348.976 98.411 348.976 98.411 339.148 C 99.123 339.139 99.834 339.13 100.567 339.12 C 103.786 339.066 107.005 338.983 110.224 338.898 C 111.343 338.884 112.463 338.87 113.616 338.855 C 114.689 338.823 115.763 338.791 116.868 338.758 C 117.858 338.737 144.172 338.716 145.192 338.694 C 146.222 332.75 147.428 330.674 147.236 326.714 C 144.666 326.262 117.841 324.696 115.052 324.742 C 114.018 324.72 112.984 324.698 111.919 324.676 C 110.844 324.667 109.769 324.658 108.661 324.648 C 99.153 324.567 90.887 323.878 83.066 317.894 C 76.144 310.589 74.313 300.734 73.536 291.086 C 73.425 289.849 73.313 288.613 73.198 287.338 C 71.538 266.805 71.436 246.01 73.661 225.52 C 73.77 224.49 73.879 223.46 73.992 222.4 C 75.033 214.24 77.36 206.04 83.411 200.15 C 89.522 196.3 94.044 194.04 101.298 193.87 C 101.992 193.85 102.686 193.83 103.401 193.81 C 105.634 193.75 107.866 193.7 110.099 193.65 C 112.285 193.6 114.471 193.54 116.657 193.49 C 118.675 193.43 120.693 193.38 122.711 193.34 C 126.471 193.22 130.208 192.93 133.959 192.65 C 143.419 191.98 152.869 192.01 162.349 192.02 Z" fill="#F2DB44" style="stroke-width: 1;"/>
  <path d="M 237.411 372.148 C 237.411 414.388 237.411 456.628 237.411 500.148 C 218.711 497.811 218.711 497.811 212.474 495.586 C 211.736 495.33 210.999 495.075 210.239 494.812 C 197.606 490.238 185.853 483.591 175.411 475.148 C 174.874 474.717 174.337 474.285 173.784 473.841 C 151.813 456.043 131.494 431.822 121.411 405.148 C 156.838 383.938 196.053 372.148 237.411 372.148 Z" fill="#B0E3F8" style="stroke-width: 1;"/>
  <path d="M 237.411 18.15 C 237.411 60.39 237.411 102.63 237.411 146.15 C 217.677 146.15 217.677 146.15 210.724 144.96 C 209.902 144.83 209.081 144.69 208.235 144.56 C 180.473 139.88 154.789 131.29 129.849 118.27 C 129.116 117.89 128.382 117.51 127.627 117.12 C 122.535 114.4 122.535 114.4 121.411 112.15 C 122.598 109.5 123.845 107 125.224 104.46 C 125.633 103.7 126.043 102.94 126.464 102.15 C 146.959 64.72 177.794 33.01 219.427 20.66 C 225.395 18.99 231.191 18.15 237.411 18.15 Z" fill="#B0E3F8" style="stroke-width: 1;"/>
  <path d="M 251.411 372.148 C 290.629 372.148 334.902 381.982 367.411 405.148 C 349.462 442.807 320.908 478.911 280.716 493.972 C 271.133 497.365 261.645 500.148 251.411 500.148 C 251.411 457.908 251.411 415.668 251.411 372.148 Z" fill="#B0E3F8" style="stroke-width: 1;"/>
  <path d="M 251.411 18.15 C 286.771 21.68 316.989 41.02 339.411 68.15 C 350.372 81.72 361.118 96.77 367.411 113.15 C 332.424 134.41 292.296 146.15 251.411 146.15 C 251.411 103.91 251.411 61.67 251.411 18.15 Z" fill="#B0E3F8" style="stroke-width: 1;"/>
  <path d="M 418.411 93.15 C 425.439 98.61 430.769 105.33 436.411 112.15 C 436.741 112.48 437.071 112.81 437.411 113.15 C 438 113.05 451.263 131.87 452.411 136.15 C 454.062 139.75 455.983 143.19 457.911 146.65 C 462.248 154.69 466.113 162.75 469.411 171.27 C 469.76 172.17 470.109 173.07 470.468 173.99 C 474.852 185.6 478.083 197.31 480.536 209.46 C 480.924 211.37 480.924 211.37 481.32 213.31 C 483.962 226.54 485.411 238.57 485.411 252.148 C 467.591 252.148 449.771 252.148 431.411 252.148 C 430.751 245.22 430.091 238.29 429.411 231.15 C 426.981 208.1 426.981 208.1 414.411 189.15 C 413.017 188.44 411.6 187.77 410.161 187.15 C 407.003 185.36 406.458 184.29 405.302 180.76 C 404.81 178.56 404.389 176.34 403.98 174.12 C 402.669 167.01 400.795 160.18 398.661 153.27 C 398.322 152.17 397.982 151.07 397.632 149.94 C 394.816 141.04 391.493 132.41 387.88 123.81 C 386.411 120.15 386.411 120.15 386.411 118.15 C 388.443 116.59 390.481 115.14 392.599 113.71 C 398.906 109.34 404.774 104.62 410.571 99.59 C 413.14 97.38 415.751 95.25 418.411 93.15 Z" fill="#AFE1F6" style="stroke-width: 1;"/>
  <path d="M 69.411 93.15 C 73.261 95.48 76.446 98.06 79.724 101.15 C 86.709 107.58 94.59 112.8 102.411 118.15 C 100.672 123.49 98.836 128.78 96.862 134.03 C 93.005 144.31 89.311 154.46 87.189 165.26 C 86.842 166.92 86.842 166.92 86.488 168.62 C 86.03 170.84 85.605 173.07 85.22 175.31 C 83.946 181.38 82.666 184.55 77.442 188.12 C 76.59 188.6 75.737 189.09 74.858 189.59 C 67.321 194.39 63.704 203.56 61.829 211.96 C 59.304 225.2 58.37 238.73 57.411 252.148 C 39.591 252.148 21.771 252.148 3.411 252.148 C 3.411 238.62 3.411 238.62 4.075 233.95 C 4.225 232.9 4.374 231.85 4.528 230.76 C 4.695 229.67 4.863 228.58 5.036 227.46 C 5.214 226.3 5.391 225.13 5.574 223.93 C 13.234 175.84 33.674 127.35 69.411 93.15 Z" fill="#8ED6F6" style="stroke-width: 1;"/>
  <path d="M 431.411 267.148 C 449.231 267.148 467.051 267.148 485.411 267.148 C 484.245 290.479 484.245 290.479 482.661 299.273 C 482.485 300.281 482.309 301.288 482.127 302.326 C 480.465 311.462 478.237 320.308 475.411 329.148 C 475.138 330.017 474.865 330.887 474.584 331.782 C 464.511 363.47 448.672 391.034 427.411 416.461 C 426.966 416.994 426.522 417.528 426.064 418.077 C 423.725 420.818 421.397 423.123 418.411 425.148 C 417.526 424.349 416.64 423.55 415.728 422.726 C 406.429 414.445 396.707 407.142 386.411 400.148 C 388.07 395.054 389.815 390.01 391.681 384.988 C 397.527 369.177 403.129 353.156 405.85 336.455 C 406.411 334.148 406.411 334.148 408.45 332.48 C 409.304 331.979 410.157 331.477 411.036 330.961 C 419.63 325.306 424.552 317.016 426.896 307.097 C 429.402 293.892 430.248 280.528 431.411 267.148 Z" fill="#B0E2F7" style="stroke-width: 1;"/>
  <path d="M 3.411 267.148 C 21.231 267.148 39.051 267.148 57.411 267.148 C 58.724 281.773 58.724 281.773 59.116 286.291 C 60.533 301.467 62.214 318.458 74.411 329.148 C 75.781 329.763 77.157 330.367 78.536 330.961 C 81.893 332.897 82.403 334.124 83.634 337.898 C 84.53 341.843 85.227 345.825 85.946 349.805 C 88.381 362.065 93.41 374.043 97.544 385.801 C 99.217 390.567 100.832 395.35 102.411 400.148 C 101.551 400.743 100.692 401.337 99.806 401.949 C 92.87 406.795 86.215 411.808 79.852 417.392 C 76.519 420.299 73.127 422.771 69.411 425.148 C 62.586 418.778 57.032 411.569 51.411 404.148 C 50.989 403.598 50.568 403.047 50.133 402.48 C 27.121 372.285 12.506 336.109 6.224 298.836 C 6.056 297.864 5.889 296.893 5.717 295.892 C 4.182 286.225 3.935 277.101 3.411 267.148 Z" fill="#8FD6F7" style="stroke-width: 1;"/>
  <path d="M 122.411 338.148 C 126.974 338.48 143.204 338.349 146.411 340.148 C 149.309 340.362 152.114 340.46 155.013 340.467 C 155.892 340.477 156.77 340.487 157.675 340.498 C 160.58 340.528 163.486 340.545 166.392 340.562 C 168.405 340.581 170.419 340.601 172.432 340.621 C 177.734 340.672 183.036 340.712 188.338 340.749 C 193.747 340.789 199.156 340.84 204.566 340.89 C 215.181 340.987 225.796 341.072 236.411 341.148 C 236.411 346.428 236.411 351.708 236.411 357.148 C 234.827 357.258 233.243 357.367 231.61 357.48 C 193.224 360.252 151.653 368.268 119.151 390.206 C 117.411 391.148 117.411 391.148 114.411 391.148 C 98.411 348.976 98.411 348.976 98.411 339.148 C 99.117 339.149 99.823 339.151 100.551 339.152 C 103.755 339.14 106.957 339.082 110.161 339.023 C 111.272 339.026 112.384 339.028 113.528 339.031 C 116.603 338.957 119.412 338.839 122.411 338.148 Z" fill="#AFE1F5" style="stroke-width: 1;"/>
  <path d="M 236.411 372.148 C 236.741 372.148 237.071 372.148 237.411 372.148 C 237.411 414.388 237.411 456.628 237.411 500.148 C 218.711 497.811 218.711 497.811 212.474 495.586 C 211.736 495.33 210.999 495.075 210.239 494.812 C 197.606 490.238 185.853 483.591 175.411 475.148 C 174.874 474.717 174.337 474.285 173.784 473.841 C 151.813 456.043 131.494 431.822 121.411 405.148 C 138.055 395.518 138.055 395.518 143.411 393.148 C 144.071 393.478 144.731 393.808 145.411 394.148 C 145.411 395.468 145.411 396.788 145.411 398.148 C 146.753 400.398 148.107 402.43 149.661 404.523 C 150.103 405.13 150.545 405.736 151 406.361 C 156.705 414.071 162.861 421.749 169.763 428.422 C 171.411 430.148 171.411 430.148 171.411 432.148 C 172.235 432.475 172.235 432.475 173.075 432.808 C 176.166 434.581 178.363 437.022 180.786 439.586 C 187.168 446.138 194.087 451.692 201.411 457.148 C 201.965 457.568 202.519 457.988 203.089 458.421 C 213.515 466.307 224.712 473.299 236.411 479.148 C 236.411 443.838 236.411 408.528 236.411 372.148 Z" fill="#8DD3F3" style="stroke-width: 1;"/>
  <path d="M 237.411 18.15 C 237.411 60.39 237.411 102.63 237.411 146.15 C 237.081 146.15 236.751 146.15 236.411 146.15 C 236.411 110.84 236.411 75.53 236.411 39.15 C 222.487 46.67 222.487 46.67 209.411 55.27 C 208.712 55.78 208.012 56.28 207.292 56.8 C 198.757 63.01 190.761 69.62 183.005 76.78 C 180.804 78.79 178.565 80.73 176.286 82.65 C 162.909 94.34 152.551 109.68 142.411 124.15 C 139.847 122.88 137.285 121.61 134.724 120.34 C 134.002 119.98 133.281 119.62 132.538 119.26 C 128.73 117.36 125.022 115.41 121.411 113.15 C 139.272 75.12 168.187 39.52 208.411 24.15 C 217.925 20.82 227.258 18.15 237.411 18.15 Z" fill="#8DD3F3" style="stroke-width: 1;"/>
  <path d="M 297.411 210.52 C 303.639 211.82 306.879 218 310.224 223.02 C 311.19 224.45 312.158 225.88 313.126 227.31 C 313.649 228.08 314.172 228.86 314.711 229.65 C 318.471 235.17 322.313 240.64 326.137 246.11 C 332.623 255.415 339.015 264.782 345.411 274.148 C 345.415 273.418 345.418 272.688 345.422 271.935 C 345.46 265.049 345.517 258.163 345.595 251.278 C 345.635 247.74 345.667 244.2 345.682 240.66 C 345.7 236.59 345.75 232.52 345.802 228.45 C 345.803 227.18 345.804 225.9 345.806 224.6 C 345.825 223.42 345.845 222.23 345.865 221.02 C 345.879 219.46 345.879 219.46 345.892 217.87 C 346.547 214.44 347.659 213.24 350.411 211.15 C 354.148 210.61 356.364 210.48 359.592 212.53 C 362.434 216.62 362.014 220.63 362.021 225.5 C 362.037 226.54 362.054 227.57 362.072 228.64 C 362.121 232.02 362.142 235.39 362.161 238.77 C 362.186 241.09 362.211 243.41 362.238 245.73 C 362.288 250.36 362.326 254.99 362.356 259.623 C 362.391 264.547 362.468 269.468 362.582 274.39 C 362.652 277.531 362.703 280.671 362.749 283.812 C 362.774 285.233 362.806 286.654 362.847 288.075 C 363.173 300.022 363.173 300.022 360.134 303.984 C 356.887 306.565 355.52 307.184 351.506 306.746 C 348.944 306.015 348.142 305.119 346.482 303.062 C 345.712 302.11 345.712 302.11 344.926 301.139 C 342.586 298.064 340.379 294.918 338.224 291.711 C 337.255 290.286 336.286 288.862 335.317 287.437 C 334.588 286.361 334.588 286.361 333.845 285.263 C 331.651 282.028 329.438 278.807 327.224 275.586 C 326.818 274.995 326.411 274.403 325.993 273.794 C 321.7 267.554 317.375 261.337 313.048 255.121 C 312.311 254.062 311.574 253.003 310.815 251.912 C 309.014 249.32 307.213 246.74 305.411 244.15 C 305.408 244.88 305.404 245.61 305.4 246.36 C 305.362 253.247 305.305 260.133 305.227 267.019 C 305.188 270.559 305.156 274.099 305.14 277.639 C 305.122 281.71 305.072 285.78 305.021 289.851 C 305.019 291.756 305.019 291.756 305.017 293.7 C 304.987 295.471 304.987 295.471 304.957 297.278 C 304.948 298.317 304.939 299.357 304.93 300.427 C 304.276 303.859 303.161 305.048 300.411 307.148 C 296.911 307.711 296.911 307.711 293.411 307.148 C 290.281 304.268 289.467 302.563 288.897 298.316 C 288.87 296.799 288.865 295.282 288.878 293.765 C 288.869 292.934 288.861 292.102 288.852 291.246 C 288.829 288.505 288.836 285.764 288.845 283.023 C 288.84 281.114 288.833 279.205 288.826 277.296 C 288.816 273.298 288.82 269.301 288.835 265.303 C 288.852 260.181 288.828 255.06 288.793 249.94 C 288.771 246 288.773 242.06 288.781 238.12 C 288.782 236.23 288.775 234.34 288.76 232.45 C 288.743 229.81 288.757 227.17 288.78 224.53 C 288.768 223.75 288.757 222.97 288.745 222.17 C 288.815 218.17 289.257 216.34 291.763 213.16 C 294.411 211.15 294.411 211.15 297.411 210.52 Z" fill="#050501" style="stroke-width: 1;"/>
  <path d="M 374.411 127.15 C 379.339 139.6 383.885 152.06 387.474 164.96 C 387.772 166.03 388.071 167.11 388.378 168.21 C 390.411 175.71 390.411 175.71 390.411 179.15 C 377.846 179.27 365.312 179.15 352.755 178.68 C 333.444 178.01 314.128 177.82 294.807 177.62 C 290.005 177.56 285.203 177.51 280.401 177.46 C 271.071 177.35 261.741 177.25 252.411 177.15 C 252.411 171.87 252.411 166.59 252.411 161.15 C 254.538 160.99 256.665 160.83 258.857 160.67 C 275.413 159.37 291.339 157.53 307.411 153.15 C 308.288 152.92 309.164 152.69 310.067 152.45 C 331.03 146.89 351.733 139.08 370.513 128.14 C 372.411 127.15 372.411 127.15 374.411 127.15 Z" fill="#ADE0F4" style="stroke-width: 1;"/>
  <path d="M 390.411 339.148 C 389.097 349.357 385.718 358.831 382.411 368.523 C 381.858 370.165 381.306 371.807 380.755 373.449 C 376.45 386.221 376.45 386.221 374.411 391.148 C 369.742 389.732 365.534 387.773 361.224 385.523 C 326.532 367.846 291.071 359.803 252.411 357.148 C 252.411 351.868 252.411 346.588 252.411 341.148 C 254.479 341.123 256.547 341.098 258.677 341.072 C 268.276 340.955 277.875 340.834 287.474 340.711 C 288.335 340.7 289.196 340.689 290.083 340.677 C 310.847 340.411 331.608 340.125 352.366 339.52 C 365.051 339.15 377.722 339.033 390.411 339.148 Z" fill="#ADE0F4" style="stroke-width: 1;"/>
  <path d="M 114.411 127.15 C 117.836 127.71 120.538 129.24 123.536 130.93 C 157.929 150.23 197.266 159.44 236.411 161.15 C 236.411 166.43 236.411 171.71 236.411 177.15 C 232.692 177.19 232.692 177.19 228.898 177.22 C 220.604 177.31 212.31 177.4 204.016 177.49 C 198.999 177.54 193.982 177.6 188.965 177.65 C 160.058 177.93 160.058 177.93 131.171 178.94 C 124.416 179.26 117.672 179.26 110.911 179.21 C 109.07 179.2 109.07 179.2 107.192 179.2 C 104.265 179.19 101.338 179.17 98.411 179.15 C 99.683 171 101.697 163.26 104.161 155.4 C 104.512 154.27 104.864 153.13 105.226 151.96 C 107.888 143.51 110.87 135.28 114.411 127.15 Z" fill="#AEE1F5" style="stroke-width: 1;"/>
  <path d="M 227.817 210.55 C 228.538 210.54 229.259 210.53 230.001 210.52 C 231.527 210.51 233.054 210.51 234.58 210.52 C 236.877 210.52 239.169 210.48 241.466 210.43 C 251.916 210.34 260.511 211.9 268.634 219.12 C 274.779 225.47 277.601 232.17 278.036 240.96 C 277.714 250.58 274.071 257.996 267.161 264.648 C 256.041 273.428 245.008 272.636 231.411 272.148 C 231.432 273.031 231.453 273.913 231.475 274.823 C 231.543 278.112 231.593 281.401 231.631 284.691 C 231.651 286.112 231.678 287.533 231.713 288.954 C 231.762 291.002 231.784 293.049 231.802 295.097 C 231.823 296.328 231.844 297.559 231.865 298.827 C 231.325 302.779 230.276 304.413 227.411 307.148 C 223.581 307.764 221.462 307.872 218.225 305.642 C 215.665 302.122 215.851 298.869 215.894 294.68 C 215.887 293.827 215.88 292.975 215.872 292.096 C 215.855 289.28 215.866 286.465 215.88 283.648 C 215.877 281.691 215.873 279.733 215.868 277.775 C 215.862 273.673 215.871 269.571 215.89 265.469 C 215.913 260.209 215.899 254.95 215.875 249.69 C 215.861 245.65 215.866 241.61 215.876 237.56 C 215.879 235.62 215.875 233.68 215.866 231.75 C 215.856 229.04 215.871 226.33 215.894 223.62 C 215.886 222.81 215.877 222.01 215.869 221.19 C 215.923 217.65 216.117 215.55 218.232 212.65 C 221.317 210.52 224.193 210.54 227.817 210.55 Z" fill="#030300" style="stroke-width: 1;"/>
  <path d="M 137.411 211.15 C 141.436 214.21 142.781 218.07 144.329 222.72 C 144.588 223.46 144.847 224.21 145.114 224.98 C 145.953 227.41 146.776 229.84 147.599 232.27 C 148.173 233.94 148.748 235.61 149.324 237.28 C 150.48 240.64 151.63 243.99 152.774 247.35 C 154.255 251.698 155.754 256.04 157.263 260.379 C 159.321 266.299 161.37 272.222 163.411 278.148 C 163.793 277.027 164.176 275.905 164.569 274.75 C 165.11 273.162 165.651 271.575 166.192 269.988 C 166.482 269.139 166.771 268.29 167.069 267.416 C 168.66 262.751 170.253 258.086 171.85 253.423 C 172.493 251.546 173.136 249.67 173.778 247.79 C 174.095 246.87 174.413 245.94 174.739 244.99 C 176.512 239.8 178.261 234.61 179.982 229.41 C 180.338 228.35 180.694 227.28 181.062 226.19 C 181.693 224.3 182.315 222.41 182.925 220.51 C 184.9 214.66 184.9 214.66 187.435 212.11 C 190.307 210.71 192.266 210.69 195.411 211.15 C 197.786 212.71 197.786 212.71 199.411 215.15 C 199.858 220.73 198.766 225.11 197.012 230.31 C 196.757 231.1 196.501 231.88 196.238 232.69 C 195.397 235.27 194.54 237.84 193.681 240.41 C 193.087 242.21 192.494 244 191.901 245.8 C 190.658 249.56 189.407 253.311 188.15 257.064 C 186.542 261.869 184.959 266.683 183.383 271.499 C 182.165 275.208 180.932 278.912 179.695 282.615 C 179.104 284.387 178.52 286.162 177.94 287.938 C 177.128 290.421 176.296 292.896 175.457 295.37 C 175.223 296.102 174.988 296.834 174.747 297.588 C 173.177 302.128 171.478 304.571 167.411 307.148 C 164.424 307.905 162.578 307.55 159.411 307.148 C 156.134 304.495 154.708 302.047 153.372 298.09 C 153.024 297.078 152.675 296.067 152.317 295.025 C 151.953 293.931 151.59 292.838 151.216 291.711 C 150.631 290 150.631 290 150.035 288.254 C 148.775 284.556 147.53 280.852 146.286 277.148 C 145.006 273.371 143.722 269.595 142.437 265.819 C 141.594 263.34 140.753 260.861 139.912 258.382 C 137.65 251.722 135.342 245.09 132.903 238.49 C 132.658 237.82 132.413 237.16 132.16 236.47 C 131.096 233.59 130.017 230.71 128.915 227.84 C 125.726 219.24 125.726 219.24 127.411 214.15 C 129.799 210.17 133.133 210.62 137.411 211.15 Z" fill="#040401" style="stroke-width: 1;"/>
  <path d="M 107.411 414.148 C 111.233 415.422 111.716 417.207 113.468 420.671 C 114.028 421.804 114.028 421.804 114.599 422.961 C 118.403 430.392 122.546 437.35 127.411 444.148 C 128.097 445.109 128.783 446.069 129.489 447.058 C 140.222 461.709 151.994 475.04 166.411 486.148 C 164.411 487.148 164.411 487.148 160.649 485.918 C 159.003 485.278 157.361 484.625 155.724 483.961 C 154.84 483.603 153.955 483.245 153.045 482.876 C 126.569 471.871 102.602 456.43 81.411 437.148 C 85.293 427.672 98.601 419.016 107.411 414.148 Z" fill="#8DD4F4" style="stroke-width: 1;"/>
  <path d="M 166.411 32.15 C 165.577 32.84 164.743 33.53 163.884 34.24 C 153.294 43.05 143.894 52.24 135.411 63.15 C 134.986 63.69 134.56 64.24 134.122 64.8 C 126.686 74.37 120.501 84.46 114.595 95.03 C 112.889 98.08 111.15 101.12 109.411 104.15 C 98.54 100.36 89.111 90.54 80.411 83.15 C 83.867 78.75 87.406 75.28 91.849 71.9 C 92.461 71.43 93.074 70.95 93.705 70.47 C 95.6 69.02 97.504 67.58 99.411 66.15 C 99.975 65.72 100.539 65.29 101.12 64.85 C 153.139 25.51 153.139 25.51 166.411 32.15 Z" fill="#8DD4F4" style="stroke-width: 1;"/>
  <path d="M 379.411 414.148 C 390.225 417.923 399.195 427.401 407.411 435.148 C 405.862 439.155 403.076 441.481 399.849 444.148 C 399.276 444.625 398.703 445.101 398.112 445.592 C 376.859 462.986 351 479.363 324.411 487.148 C 323.751 486.818 323.091 486.488 322.411 486.148 C 323.329 485.375 324.247 484.601 325.192 483.805 C 346.332 465.905 361.803 445.185 375.411 421.148 C 376.171 419.817 376.931 418.486 377.692 417.156 C 378.26 416.164 378.827 415.171 379.411 414.148 Z" fill="#AEE0F5" style="stroke-width: 1;"/>
  <path d="M 322.411 31.15 C 354.277 41 382.829 58.78 407.411 81.15 C 403.529 90.62 390.221 99.28 381.411 104.15 C 377.589 102.87 377.106 101.09 375.355 97.63 C 374.795 96.49 374.795 96.49 374.224 95.34 C 370.419 87.91 366.277 80.95 361.411 74.15 C 360.725 73.19 360.04 72.23 359.333 71.24 C 349.149 57.33 338.013 44.25 324.317 33.72 C 323.688 33.2 323.059 32.68 322.411 32.15 C 322.411 31.82 322.411 31.49 322.411 31.15 Z" fill="#AEE0F5" style="stroke-width: 1;"/>
  <path d="M 114.411 127.15 C 117.364 127.77 119.687 128.72 122.302 130.21 C 123.011 130.62 123.72 131.02 124.45 131.43 C 125.545 132.07 125.545 132.07 126.661 132.71 C 127.406 133.14 128.151 133.56 128.919 134 C 130.752 135.04 132.582 136.09 134.411 137.15 C 133.938 138.06 133.465 138.97 132.978 139.91 C 128.853 147.95 125.037 156.09 121.474 164.4 C 121.084 165.3 120.695 166.21 120.294 167.14 C 118.727 170.83 117.388 174.24 116.411 178.15 C 119.711 178.15 123.011 178.15 126.411 178.15 C 126.411 178.48 126.411 178.81 126.411 179.15 C 117.171 179.15 107.931 179.15 98.411 179.15 C 100.665 166.75 100.665 166.75 102.146 161.91 C 102.47 160.85 102.794 159.79 103.128 158.69 C 103.639 157.06 103.639 157.06 104.161 155.4 C 104.512 154.27 104.864 153.13 105.226 151.96 C 107.888 143.51 110.87 135.28 114.411 127.15 Z" fill="#8CD3F3" style="stroke-width: 1;"/>
  <path d="M 98.411 339.148 C 105.671 339.148 112.931 339.148 120.411 339.148 C 119.091 339.478 117.771 339.808 116.411 340.148 C 120.886 352.192 125.914 363.819 131.583 375.349 C 132.411 377.148 132.411 377.148 133.411 380.148 C 134.401 380.643 134.401 380.643 135.411 381.148 C 132.665 382.635 129.914 384.111 127.161 385.586 C 126.384 386.007 125.607 386.428 124.806 386.861 C 123.675 387.465 123.675 387.465 122.521 388.082 C 121.829 388.454 121.138 388.825 120.426 389.209 C 118.431 390.139 116.559 390.691 114.411 391.148 C 98.411 348.976 98.411 348.976 98.411 339.148 Z" fill="#8ED4F5" style="stroke-width: 1;"/>
  <path d="M 231.411 226.15 C 234.567 226.07 237.722 225.98 240.974 225.9 C 241.954 225.86 242.935 225.82 243.945 225.79 C 249.991 225.71 253.517 226.53 258.411 230.15 C 261.674 234.04 263.212 239.07 262.923 244.13 C 261.894 248.19 259.522 251.403 256.411 254.148 C 250.823 257.222 246.265 257.532 239.974 257.336 C 237.148 257.274 234.322 257.212 231.411 257.148 C 231.411 246.92 231.411 236.69 231.411 226.15 Z" fill="#F1DA44" style="stroke-width: 1;"/>
  <path d="M 251.411 372.148 C 251.741 372.148 252.071 372.148 252.411 372.148 C 252.741 410.098 253.071 448.048 253.411 487.148 C 258.361 489.128 263.311 491.108 268.411 493.148 C 270.061 493.808 271.711 494.468 273.411 495.148 C 270.686 497.874 267.755 498.09 264.099 498.773 C 263.102 498.974 263.102 498.974 262.085 499.18 C 258.398 499.894 255.204 500.148 251.411 500.148 C 251.411 457.908 251.411 415.668 251.411 372.148 Z" fill="#72A3B9" style="stroke-width: 1;"/>
  <path d="M 251.411 18.15 C 262.661 19.27 262.661 19.27 268.036 20.71 C 269.06 20.98 270.083 21.25 271.138 21.53 C 271.888 21.73 272.638 21.94 273.411 22.15 C 267.328 26.2 260.171 28.37 253.411 31.15 C 253.081 69.1 252.751 107.05 252.411 146.15 C 252.081 146.15 251.751 146.15 251.411 146.15 C 251.411 103.91 251.411 61.67 251.411 18.15 Z" fill="#72A3B9" style="stroke-width: 1;"/>
  <path d="M 330.411 479.148 C 331.071 479.478 331.731 479.808 332.411 480.148 C 329.31 484.377 327.705 486.312 322.411 487.148 C 325.078 484.482 327.745 481.815 330.411 479.148 Z" fill="#94BFD0" style="stroke-width: 1;"/>
  <path style="fill: rgb(216, 216, 216); stroke: rgb(0, 0, 0);" d="M 146.771 327.016 C 147.255 328.47 146.632 330.121 146.632 331.628 C 146.632 331.989 146.741 332.906 146.528 333.119 C 146.447 333.2 146.539 333.454 146.459 333.535 C 146.412 333.582 146.476 333.795 146.424 333.847 C 146.122 334.149 146.317 334.994 146.008 335.304 C 145.886 335.425 146.013 335.784 145.904 335.893 C 145.509 336.287 145.652 337.254 145.314 337.592 C 145.239 337.667 145.32 337.899 145.245 337.974 C 145.214 338.004 145.268 338.933 145.002 338.667 C 144.767 338.432 144.593 337.447 144.933 337.107 C 145.318 336.722 145.727 336.347 146.146 335.928 C 146.3 335.774 146.35 335.551 146.493 335.408 C 146.73 335.171 146.675 334.394 146.944 334.125 C 147.037 334.032 146.886 333.697 146.979 333.604 C 147.164 333.419 146.979 332.52 146.979 332.252 C 146.979 331.318 146.698 329.758 147.256 329.2 C 147.423 329.034 147.364 328.676 147.534 328.507 C 147.763 328.278 147.46 327.263 147.152 327.571 C 146.204 328.518 146.112 330.704 146.112 332.252 C 146.112 332.815 146.212 333.716 145.973 334.194 C 145.886 334.367 145.984 334.633 145.869 334.749 C 145.822 334.796 145.882 335.013 145.834 335.061 C 145.583 335.312 145.776 335.987 145.557 336.205 C 145.473 336.289 145.581 336.598 145.488 336.691 C 145.3 336.878 145.245 337.76 145.245 338.043 C 145.245 338.183 145.204 338.488 145.28 338.563 C 145.454 338.738 145.57 338.342 145.592 338.321 C 145.87 338.042 145.949 337.107 146.424 337.107"/>
  <path style="fill: rgb(216, 216, 216); stroke: rgb(0, 0, 0);" d="M 146.979 328.576 C 146.979 328.27 146.966 328.013 147.083 327.779 C 147.097 327.75 147.187 327.223 147.187 327.397 C 147.21 327.432 147.227 327.472 147.256 327.501 C 147.347 327.593 147.316 327.12 147.187 327.12"/>
  <path style="fill: rgb(216, 216, 216); stroke: rgb(0, 0, 0);" d="M 139.003 337.974 C 139.423 338.254 140.1 338.216 140.667 338.216 C 141.731 338.216 142.794 338.216 143.858 338.216 C 144.353 338.216 144.591 338.256 144.829 338.494 C 144.846 338.511 145.098 338.641 145.037 338.702 C 144.752 338.987 144.007 338.979 143.511 338.979 C 142.325 338.979 141.557 338.702 140.321 338.702 C 139.906 338.702 138.691 338.754 138.691 338.494"/>
  <rect x="137.668" y="337.996" width="12.642" height="0.589" style="fill: rgb(216, 216, 216); stroke: rgb(0, 0, 0);"/>
  <rect x="145.435" y="336.228" width="2.357" height="0.804" style="fill: rgb(216, 216, 216); stroke: rgb(0, 0, 0);"/>
  <rect x="114.848" y="337.835" width="33.694" height="0.857" style="fill: rgb(216, 216, 216); stroke: rgb(0, 0, 0);"/>
  <rect x="98.276" y="338.589" width="50.462" height="0.225" style="fill: rgb(216, 216, 216); stroke: rgb(0, 0, 0);"/>
  <rect x="98.276" y="339.04" width="48.322" height="0.338" style="fill: rgb(216, 216, 216); stroke: rgb(0, 0, 0);"/>
  <rect x="98.501" y="339.378" width="52.489" height="0.676" style="fill: rgb(216, 216, 216); stroke: rgb(0, 0, 0);"/>
</svg>
